# xmcd
#
# Track frame offsets:
#	150
#	21818
#	45430
#	64040
#	87045
#	106757
#	123115
#	137915
#	156653
#	176323
#	198548
#	221368
#	241420
#	262028
#	275465
#	291418
#
# Disc length: 4210 seconds
#
# Revision: 0
# Processed by: cddbd v1.5.2PL0 Copyright (c) Steve Scherf et al.
# Submitted via: EasyCDDAExtractor 16.0.0.1
#
DISCID=e5107010
DTITLE=Mariah Carey - Charmbracelet
DYEAR=1900
DGENRE=
TTITLE0=Through The Rain
TTITLE1=Boy (I Need You) ft. Cam'Ron
TTITLE2=The One
TTITLE3=Yours
TTITLE4=You Got Me feat Jay Z and Freeway
TTITLE5=I Only Wanted
TTITLE6=Clown
TTITLE7=My Saving Grace
TTITLE8=You Had Your Chance
TTITLE9=Lullaby
TTITLE10=Irresistable (remix feat Westside Connection)
TTITLE11=Subtle Invitation
TTITLE12=Bringin On The Heartbreak
TTITLE13=Sunflowers For Alfred Roy
TTITLE14=Through The Rain (remix feat Kelly Price, Joe)
TTITLE15=I know what you want
EXTD=
EXTT0=
EXTT1=
EXTT2=
EXTT3=
EXTT4=
EXTT5=
EXTT6=
EXTT7=
EXTT8=
EXTT9=
EXTT10=
EXTT11=
EXTT12=
EXTT13=
EXTT14=
EXTT15=
PLAYORDER=
